<?xml version="1.0" standalone="no"?>
<!DOCTYPE svg PUBLIC "-//W3C//DTD SVG 20010904//EN"
 "http://www.w3.org/TR/2001/REC-SVG-20010904/DTD/svg10.dtd">
<svg version="1.0" xmlns="http://www.w3.org/2000/svg"
 width="172.000000pt" height="222.000000pt" viewBox="0 0 172.000000 222.000000"
 preserveAspectRatio="xMidYMid meet">

<g transform="translate(0.000000,222.000000) scale(0.100000,-0.100000)"
fill="#000000" stroke="none">
<path d="M445 1959 c-37 -9 -115 -76 -115 -100 0 -4 -20 -42 -44 -83 -43 -73
-96 -206 -96 -242 0 -10 -5 -33 -12 -51 -10 -27 -9 -41 4 -80 9 -27 19 -63 22
-81 6 -38 82 -140 125 -171 40 -29 66 -26 106 12 l35 32 3 119 c2 105 0 120
-16 130 -15 9 -22 7 -38 -13 -10 -13 -19 -36 -19 -51 0 -34 -27 -100 -40 -100
-17 0 -58 73 -69 120 -28 123 -2 231 92 377 32 50 70 78 90 66 26 -15 64 -67
91 -124 14 -31 37 -73 51 -92 60 -89 150 -381 170 -547 4 -43 2 -63 -12 -90
l-18 -35 -89 -5 c-70 -4 -91 -9 -100 -23 -8 -12 -8 -22 0 -35 10 -14 27 -17
107 -17 139 0 133 10 148 -248 10 -171 10 -210 -1 -217 -8 -5 -34 6 -70 31
-60 41 -85 48 -93 27 -10 -30 65 -118 128 -150 119 -61 157 -58 252 16 32 25
81 63 109 83 77 57 135 131 132 168 -5 48 -38 45 -91 -8 -63 -61 -201 -165
-230 -172 -16 -4 -26 -2 -28 7 -2 7 -3 111 -1 230 l3 218 32 17 c18 9 69 20
114 24 106 9 138 24 138 64 l0 30 -130 0 c-134 0 -169 8 -179 42 -3 10 -14 61
-25 113 -11 52 -27 131 -37 176 l-18 81 29 44 c16 24 53 64 81 89 28 25 57 54
63 66 16 26 61 43 136 50 55 5 64 3 107 -26 54 -36 115 -122 118 -165 4 -54 0
-65 -36 -105 -34 -37 -40 -40 -91 -40 -67 0 -93 13 -93 46 0 36 -18 64 -41 64
-46 0 -44 -80 5 -154 42 -63 61 -71 142 -63 109 11 223 122 224 218 0 90 -20
145 -82 219 -33 38 -66 70 -73 70 -7 0 -23 9 -37 19 -30 24 -149 42 -206 31
-23 -4 -53 -15 -67 -24 -36 -24 -103 -94 -130 -136 -13 -19 -34 -46 -49 -59
-21 -20 -28 -22 -41 -11 -8 7 -15 16 -15 21 0 10 -46 89 -96 164 -18 28 -45
77 -59 110 -18 43 -39 71 -72 98 -25 20 -49 37 -52 36 -3 -1 -24 -5 -46 -10z"/>
</g>
</svg>
